<svg width="30" height="30" viewBox="0 0 30 30" fill="none" xmlns="http://www.w3.org/2000/svg">
<rect x="1" y="1" width="28" height="28" stroke="#DA2127" stroke-width="2"/>
<path d="M20.4833 13.4648H17.8391C17.7908 13.1228 17.6922 12.8189 17.5433 12.5533C17.3944 12.2836 17.2032 12.0542 16.9698 11.8651C16.7364 11.6759 16.4667 11.531 16.1609 11.4304C15.859 11.3298 15.531 11.2795 15.1768 11.2795C14.5369 11.2795 13.9795 11.4384 13.5046 11.7564C13.0297 12.0703 12.6615 12.5291 12.3999 13.1328C12.1383 13.7325 12.0075 14.4609 12.0075 15.3182C12.0075 16.1996 12.1383 16.9401 12.3999 17.5398C12.6655 18.1394 13.0357 18.5922 13.5107 18.8981C13.9856 19.204 14.5349 19.3569 15.1587 19.3569C15.5089 19.3569 15.8329 19.3106 16.1307 19.218C16.4325 19.1255 16.7002 18.9906 16.9336 18.8136C17.167 18.6325 17.3602 18.4131 17.5131 18.1555C17.6701 17.898 17.7788 17.6042 17.8391 17.2741L20.4833 17.2862C20.4149 17.8537 20.2438 18.401 19.9702 18.9283C19.7005 19.4515 19.3363 19.9203 18.8775 20.3349C18.4227 20.7454 17.8794 21.0714 17.2475 21.3129C16.6197 21.5503 15.9093 21.669 15.1165 21.669C14.0137 21.669 13.0277 21.4195 12.1584 20.9205C11.2931 20.4214 10.6089 19.699 10.1058 18.7532C9.60677 17.8074 9.35724 16.6624 9.35724 15.3182C9.35724 13.9699 9.6108 12.8229 10.1179 11.8771C10.625 10.9313 11.3132 10.2109 12.1825 9.71591C13.0518 9.21686 14.0298 8.96733 15.1165 8.96733C15.8329 8.96733 16.4969 9.06794 17.1087 9.26918C17.7244 9.47041 18.2698 9.7642 18.7447 10.1506C19.2196 10.5329 19.6059 11.0018 19.9038 11.5572C20.2056 12.1126 20.3988 12.7485 20.4833 13.4648Z" fill="#DA2127"/>
</svg>
