<svg width="44" height="44" viewBox="0 0 44 44" fill="none" xmlns="http://www.w3.org/2000/svg">
<rect width="44" height="44" rx="10" fill="white"/>
<path d="M26 10L29.0667 13.0667L25.2133 16.8933L27.1067 18.7867L30.9333 14.9333L34 18V10H26ZM10 18L13.0667 14.9333L16.8933 18.7867L18.7867 16.8933L14.9333 13.0667L18 10H10V18ZM18 34L14.9333 30.9333L18.7867 27.1067L16.8933 25.2133L13.0667 29.0667L10 26V34H18ZM34 26L30.9333 29.0667L27.1067 25.2133L25.2133 27.1067L29.0667 30.9333L26 34H34V26Z" fill="#FF7373"/>
</svg>
