<svg width="627" height="504" viewBox="0 0 627 504" fill="none" xmlns="http://www.w3.org/2000/svg">
<g clip-path="url(#clip0_1392_34106)">
<rect width="627" height="504" fill="#FF7373"/>
<path d="M314.883 110.506L569.883 71.5059" stroke="black"/>
<line x1="524.942" y1="169.503" x2="626.942" y2="157.503" stroke="black"/>
<line x1="406.663" y1="449.631" x2="626.663" y2="248.631" stroke="black"/>
<line x1="405.975" y1="450.501" x2="628.975" y2="439.501" stroke="black"/>
<line x1="167.715" y1="503.589" x2="473.715" y2="291.589" stroke="black"/>
<line x1="171.955" y1="318.502" x2="473.956" y2="291.502" stroke="black"/>
<line x1="-0.164067" y1="177.528" x2="94.8359" y2="144.528" stroke="black"/>
<line x1="2.93533" y1="156.504" x2="94.9353" y2="144.504" stroke="black"/>
<line x1="163.917" y1="65.5069" x2="366.917" y2="31.5069" stroke="black"/>
<line x1="14.7507" y1="234.567" x2="367.751" y2="31.5666" stroke="black"/>
<line x1="15.9364" y1="235.504" x2="249.936" y2="205.504" stroke="black"/>
<line x1="0.782929" y1="325.55" x2="249.783" y2="205.55" stroke="black"/>
<line y1="468.5" x2="70" y2="468.5" stroke="black"/>
<line x1="45.5874" y1="503.718" x2="390.587" y2="-0.282436" stroke="black"/>
<line x1="314.727" y1="110.581" x2="481.727" y2="1.5813" stroke="black"/>
<g filter="url(#filter0_d_1392_34106)">
<line x1="383.54" y1="503.805" x2="597.54" y2="-0.195418" stroke="black"/>
</g>
<line x1="172.735" y1="318.576" x2="568.735" y2="71.5758" stroke="black"/>
<line x1="-0.374442" y1="251.669" x2="222.626" y2="-0.331369" stroke="black"/>
<line x1="-2.23222" y1="117.557" x2="222.768" y2="-0.4428" stroke="black"/>
<path d="M52.4994 30.4994L222.913 -0.492159" stroke="black"/>
<line x1="-0.347146" y1="81.6402" x2="84.6529" y2="-0.359849" stroke="black"/>
<line x1="-0.209529" y1="29.546" x2="64.7905" y2="-0.453979" stroke="black"/>
<line x1="163.763" y1="65.5595" x2="284.763" y2="0.559536" stroke="black"/>
<path d="M13.5 236L360.5 33.5L171.5 63L287 1H391.5H480L318 103L247 210H227.5L185 217L120.5 227L13.5 236Z" fill="black" fill-opacity="0.2"/>
<path d="M326.5 218.5L561.5 75.5L595 -1.5H627.5V157.5L527 167.5L473.5 289.5L382.5 500.5H165L54.5 493L175 314L326.5 218.5Z" fill="black" fill-opacity="0.2"/>
<path d="M-2.5 26L58.5 2.5H220L-2.5 117L-9 99H-2.5V77V26Z" fill="black" fill-opacity="0.2"/>
<path d="M407.5 451L625 441V500.5H582.5H520.5H437.5H382.5L407.5 451Z" fill="black" fill-opacity="0.2"/>
<path d="M1 467H73L55.3 495.778H51.4L68.8 504H19H-14L1 467Z" fill="black" fill-opacity="0.2"/>
</g>
<defs>
<filter id="filter0_d_1392_34106" x="379.078" y="-0.390625" width="222.922" height="512.391" filterUnits="userSpaceOnUse" color-interpolation-filters="sRGB">
<feFlood flood-opacity="0" result="BackgroundImageFix"/>
<feColorMatrix in="SourceAlpha" type="matrix" values="0 0 0 0 0 0 0 0 0 0 0 0 0 0 0 0 0 0 127 0" result="hardAlpha"/>
<feOffset dy="4"/>
<feGaussianBlur stdDeviation="2"/>
<feComposite in2="hardAlpha" operator="out"/>
<feColorMatrix type="matrix" values="0 0 0 0 0 0 0 0 0 0 0 0 0 0 0 0 0 0 0.25 0"/>
<feBlend mode="normal" in2="BackgroundImageFix" result="effect1_dropShadow_1392_34106"/>
<feBlend mode="normal" in="SourceGraphic" in2="effect1_dropShadow_1392_34106" result="shape"/>
</filter>
<clipPath id="clip0_1392_34106">
<rect width="627" height="504" fill="white"/>
</clipPath>
</defs>
</svg>
